<svg width="40" height="40" version="1.1" viewBox="0 0 40 40" xmlns="http://www.w3.org/2000/svg">
 <g transform="translate(-1647 -231.02)">
  <g transform="matrix(.18316 0 0 .18298 1346.6 206.35)">
   <path d="m1744.6 134.86c-0.1139 8e-3 -0.2169 0.0233-0.301 0.0393-3.1344 0.44386-4.354 4.6261-1.4976 6.4977-3.4164 24.88-27.016 50.985-32.559 56.799l-0.4144 0.41491 0.4144 0.39188c1.2051 1.1777 2.4262 2.3621 3.6175 3.5485 5.1066 5.0847 10.084 10.264 14.885 15.646 0.037 0.0413 0.09 0.0634 0.1295 0.10176-1.9042 1.5318-3.6389 3.262-5.1628 5.1729-0.039-0.0415-0.063-0.0973-0.1057-0.1356-5.382-4.801-10.584-9.7793-15.668-14.885-1.1852-1.1902-2.3434-2.4308-3.5254-3.64l-0.392-0.41491-0.4149 0.41491c-20.695 19.679-41.324 30.501-56.613 32.604-1.8663-2.8772-6.052-1.6518-6.4977 1.4976-0.1001 0.79033 0.1068 2.3936 1.3138 2.3505 15.741-0.78662 31.5-1.3024 47.259-1.5898v9.2164c-15.759-0.22473-31.501-1.0647-47.259-1.659-1.2401-0.0437-1.4209 1.6419-1.3138 2.3966 0.4448 3.1404 4.6321 4.3294 6.4977 1.4515 24.128 3.3086 48.964 25.283 56.637 32.604l0.4151 0.41493 0.3918-0.41493c1.178-1.2055 2.321-2.4316 3.5024-3.6177 5.085-5.1068 10.287-10.108 15.668-14.909 0.074-0.066 0.1177-0.15773 0.1823-0.23253 0.293 0.36358 0.5662 0.74067 0.8753 1.0929 1.3095 1.5069 2.7612 2.8753 4.314 4.12-0.074 0.0644-0.1662 0.10794-0.232 0.1817-4.8006 5.3812-9.7787 10.56-14.885 15.646-1.189 1.1842-2.4125 2.3475-3.6177 3.5255l-0.4149 0.39187 0.4149 0.41492c8.028 8.4482 29.324 32.878 32.581 56.636-2.8774 1.8662-1.6658 6.0532 1.4745 6.4977 0.7647 0.10615 2.4157-0.10614 2.3729-1.3363-0.5937-15.753-1.413-31.48-1.636-47.236 3.0584-0.0313 6.1439 3.1e-4 9.2171 0-0.2872 15.759-0.826 31.484-1.6129 47.236-0.044 1.1889 1.589 1.4371 2.3959 1.3363 3.1348-0.44417 4.3322-4.6268 1.4747-6.4977 3.286-23.96 24.855-48.532 32.581-56.636l0.4142-0.41492-0.4142-0.39187c-1.2055-1.178-2.4294-2.3412-3.6184-3.5255-5.1071-5.0853-10.107-10.264-14.908-15.646-0.085-0.0955-0.2009-0.15541-0.3004-0.23525 1.9305-1.5353 3.6847-3.2747 5.2293-5.1973 0.073 0.0885 0.1239 0.19368 0.2101 0.2705 5.3815 4.8007 10.583 9.8011 15.668 14.908 1.1851 1.1898 2.3464 2.4112 3.5254 3.6177l0.3919 0.41491 0.4149-0.41491c8.4863-8.0709 32.881-29.347 56.636-32.604 1.8656 2.8779 6.0529 1.6892 6.4976-1.4516 0.1068-0.7597-0.1148-2.4391-1.3356-2.3966-15.753 0.59368-31.481 1.4358-47.236 1.659v-9.2164c15.759 0.28714 31.486 0.80293 47.236 1.5898 1.1986 0.0437 1.4375-1.562 1.3356-2.3736-0.4437-3.1345-4.6264-4.3543-6.4976-1.4976-22.407-3.4332-39.9-18.272-56.66-32.581l-0.4143-0.36881-0.3688 0.39186c-1.1789 1.2064-2.3403 2.4275-3.5254 3.6177-5.085 5.1066-10.264 10.084-15.646 14.884-0.031 0.0277-0.047 0.0683-0.076 0.0976-1.2304-1.5411-2.5827-2.9838-4.0713-4.2868-0.355-0.31141-0.735-0.58642-1.1017-0.88137 0.026-0.0265 0.063-0.0407 0.088-0.0685 4.8004-5.3809 9.8008-10.56 14.908-15.646 1.1889-1.1839 2.4128-2.3472 3.6183-3.5255l0.4142-0.39186-0.4142-0.41426c-5.6543-5.9277-29.167-31.947-32.581-56.821 2.8575-1.8706 1.6465-6.0533-1.4977-6.4984-0.6654-0.0843-2.4181 0.0472-2.3728 1.3139 0.7896 15.806 1.326 31.62 1.6128 47.443-3.0742 0-6.1428 6e-5 -9.217-0.0311 0.2185-15.819 1.0395-31.603 1.636-47.419 0.035-0.95577-0.9335-1.2802-1.7052-1.337v-1e-3c-0.1279-0.0156-0.2529-0.0157-0.3668-8e-3zm-19.452 93.49h11.47c0.9032 0 1.7462 0.0679 2.5289 0.20339 0.7827 0.12043 1.4146 0.40674 1.8963 0.85831 0.4817 0.45158 0.7227 1.166 0.7227 2.1444 0 0.96335-0.241 1.6712-0.7227 2.1227s-1.1136 0.74522-1.8963 0.88069c-0.7827 0.13548-1.6257 0.20339-2.5289 0.20339h-2.303v20.05c0 0.96335-0.06 1.8363-0.1803 2.619-0.1204 0.78271-0.4221 1.4-0.9038 1.8515-0.4666 0.45157-1.249 0.67729-2.3478 0.67729-1.0838 0-1.8668-0.22572-2.3485-0.67729s-0.7826-1.0688-0.903-1.8515c-0.1204-0.78273-0.1804-1.6557-0.1804-2.619v-20.05h-2.3031c-0.888 0-1.731-0.0679-2.5289-0.20339-0.7827-0.13547-1.4146-0.42912-1.8961-0.88069-0.4817-0.45157-0.7228-1.1594-0.7228-2.1227 0-0.9784 0.2411-1.6928 0.7228-2.1444 0.4815-0.45157 1.1134-0.73788 1.8961-0.85831 0.7979-0.13546 1.6409-0.20339 2.5289-0.20339zm23.707 0h3.0706c0.7828 0 1.4 0.0679 1.8515 0.20339 0.4516 0.13547 0.8957 0.56428 1.3323 1.2868 0.2709 0.43652 0.5945 1.1144 0.9708 2.0326 0.3462 0.87303 0.7525 1.9943 1.219 3.3641 0.4666 1.3698 1.0386 3.0477 1.7159 5.0346l0.5872 1.8068h0.5424l0.722-2.2583c0.3011-0.94828 0.5874-1.8212 0.8584-2.619 0.2709-0.81282 0.5119-1.5426 0.7226-2.1898 0.4366-1.3096 0.8201-2.3856 1.1513-3.2285 0.3311-0.85798 0.6321-1.5205 0.903-1.9871 0.3914-0.69241 0.8055-1.1066 1.242-1.242 0.4516-0.13546 1.0536-0.20339 1.8062-0.20339h3.2963c1.0837 0 1.8588 0.23373 2.3254 0.70034 0.4817 0.45158 0.7753 1.0688 0.8807 1.8516 0.1205 0.76766 0.1811 1.6333 0.1811 2.5966v22.939c0 1.1139-0.2032 1.9795-0.6096 2.5966-0.4064 0.61715-1.3326 0.92611-2.7776 0.92611-1.2794 0-2.1071-0.31628-2.4834-0.94849-0.3613-0.64725-0.5418-1.5055-0.5418-2.5743v-18.83h-0.6324l-4.2449 12.373c-0.2559 0.64725-0.5941 1.2565-1.0155 1.8285-0.4065 0.55693-1.0164 0.83526-1.8292 0.83526h-0.4516c-0.7977 0-1.4223-0.27833-1.8739-0.83526-0.4516-0.572-0.7905-1.1812-1.0162-1.8285l-4.2896-12.373h-0.5872v18.83c0 1.0687-0.181 1.927-0.5423 2.5743-0.3613 0.63221-1.1889 0.94849-2.4835 0.94849-1.4449 0-2.3704-0.30896-2.7769-0.92611-0.4065-0.61714-0.6095-1.4828-0.6095-2.5966v-22.939c0-0.96335 0.053-1.829 0.158-2.5966 0.1204-0.78273 0.4141-1.4 0.8807-1.8516 0.4816-0.46661 1.2641-0.70034 2.3477-0.70034z" stroke-width="4.7605"/>
  </g>
 </g>
</svg>
